# xmcd
#
# Track frame offsets:
#	150
#	13487
#	27147
#	40268
#	56422
#	70888
#	81163
#	90327
#	109262
#	126039
#	142487
#	161844
#	172997
#	184530
#	203366
#	214517
#	237820
#	254628
#	263963
#	270720
#
# Disc length: 3777 seconds
#
# Revision: 2
# Processed by: cddbd v1.5.2PL0 Copyright (c) Steve Scherf et al.
# Submitted via: audiograbber 1.83.01
#
DISCID=1c0ebf14
DTITLE=Various Artist - Classic Harmonica Blues From Smithsonian Folkways
DYEAR=2012
DGENRE=Blues
TTITLE0=Doctor Ross, The Harmonica Boss - Theme Song  
TTITLE1=Sonny Terry and Brownie McGhee - Heart In Sorrow
TTITLE2=Will Shade, Charlie Burse and Gus Cannon,  - Take Your Fingers Off It
TTITLE3=Eddie Burns - Nine Below Zero 
TTITLE4=Charlie Sayles - Bye Bye Bird 
TTITLE5=Jazz Gillum - Gillum Blues 
TTITLE6=Sonny Terry - Crow Jane Blues
TTITLE7=John Cephas and Phil Wiggins - Dog Days Of August
TTITLE8=John Sebastian and The J Band w Annie Raines - Minglewood Blues
TTITLE9=Doctor Ross, The Harmonica Boss - Good Morning Little School Girl 
TTITLE10=Phil Wiggins and The Robert Johnson Tribute Band - Sweet Home Chicago 
TTITLE11=Eddie Burns - One Way Out 
TTITLE12=Sonny Terry and Brownie McGhee - Boogie Baby  
TTITLE13=Neal Pattman - Low Down Blues 
TTITLE14=The Chambers Brothers - Hooka Tooka  
TTITLE15=Charlie Sayles - Train Piece 
TTITLE16=Doctor Ross, The Harmonica Boss - Chicago Breakdown 
TTITLE17=Warner Williams and Jay Summerour - I Feel So Good
TTITLE18=Roscoe Holcomb - Barbara Allen Blues
TTITLE19=Sonny Terry and Unknown Washboard Band - Custard Pie
EXTD=
EXTT0=
EXTT1=
EXTT2=
EXTT3=
EXTT4=
EXTT5=
EXTT6=
EXTT7=
EXTT8=
EXTT9=
EXTT10=
EXTT11=
EXTT12=
EXTT13=
EXTT14=
EXTT15=
EXTT16=
EXTT17=
EXTT18=
EXTT19=
PLAYORDER=
